<?xml version="1.0" encoding="utf-8"?>
<!-- Generator: Adobe Illustrator 24.1.1, SVG Export Plug-In . SVG Version: 6.00 Build 0)  -->
<svg version="1.1" id="Layer_1" xmlns="http://www.w3.org/2000/svg" xmlns:xlink="http://www.w3.org/1999/xlink" x="0px" y="0px"
	 viewBox="0 0 80 80" style="enable-background:new 0 0 80 80;" xml:space="preserve">
<style type="text/css">
	.st0{fill:#8A8A8A;}
	.st1{fill:none;stroke:#8A8A8A;stroke-width:2.0177;stroke-miterlimit:10;}
</style>
<g>
	<g>
		<g>
			<path class="st0" d="M19.72,59.71h8.18c1.93,0,3.85,0,3.85,2.16v1.6c0,2.17-1.92,2.17-3.85,2.17h-0.16l4.65,4.65h-2.89
				l-4.65-4.65h-2.73v4.65h-2.41V59.71z M28.37,64.28c0.48,0,0.96,0,0.96-0.56v-2.09c0-0.56-0.48-0.56-0.96-0.56h-6.25v3.21H28.37z"
				/>
			<path class="st0" d="M33.99,61.87c0-2.16,1.92-2.16,3.85-2.16h4.33c1.93,0,3.85,0,3.85,2.16v6.25c0,2.16-1.92,2.16-3.85,2.16
				h-4.33c-1.93,0-3.85,0-3.85-2.16V61.87z M37.36,68.92h5.29c0.48,0,0.96,0,0.96-0.56v-6.73c0-0.56-0.48-0.56-0.96-0.56h-5.29
				c-0.48,0-0.96,0-0.96,0.56v6.73C36.39,68.92,36.87,68.92,37.36,68.92z"/>
			<path class="st0" d="M48.26,61.87c0-2.16,1.92-2.16,3.85-2.16h7.38v1.36h-7.86c-0.48,0-0.96,0-0.96,0.56v6.73
				c0,0.56,0.48,0.56,0.96,0.56h5.29c0.48,0,0.96,0,0.96-0.56v-3.29h-2.41v-1.36h4.81v4.41c0,2.16-1.92,2.16-3.85,2.16h-4.33
				c-1.93,0-3.85,0-3.85-2.16V61.87z"/>
		</g>
		<path id="XMLID_2_" class="st1" d="M40,78.7L40,78.7c-21.21,0-38.4-17.19-38.4-38.4v0C1.6,19.1,18.79,1.91,40,1.91h0
			c21.21,0,38.4,17.19,38.4,38.4v0C78.4,61.51,61.21,78.7,40,78.7z"/>
	</g>
	<g id="XMLID_2024_">
		<path id="XMLID_2076_" class="st0" d="M40,17.16c5.62,0,6.29,0.02,8.51,0.12c2.05,0.09,3.17,0.44,3.91,0.73
			c0.98,0.38,1.68,0.84,2.42,1.57c0.74,0.74,1.19,1.44,1.57,2.42c0.29,0.74,0.63,1.86,0.73,3.91c0.1,2.22,0.12,2.89,0.12,8.51
			s-0.02,6.29-0.12,8.51c-0.09,2.05-0.44,3.17-0.73,3.91c-0.38,0.98-0.84,1.68-1.57,2.42c-0.74,0.74-1.44,1.19-2.42,1.57
			c-0.74,0.29-1.86,0.63-3.91,0.73c-2.22,0.1-2.89,0.12-8.51,0.12s-6.29-0.02-8.51-0.12c-2.05-0.09-3.17-0.44-3.91-0.73
			c-0.98-0.38-1.68-0.84-2.42-1.57c-0.74-0.74-1.19-1.44-1.57-2.42c-0.29-0.74-0.63-1.86-0.73-3.91c-0.1-2.22-0.12-2.89-0.12-8.51
			s0.02-6.29,0.12-8.51c0.09-2.05,0.44-3.17,0.73-3.91c0.38-0.98,0.84-1.68,1.57-2.42c0.74-0.74,1.44-1.19,2.42-1.57
			c0.74-0.29,1.86-0.63,3.91-0.73C33.71,17.18,34.38,17.16,40,17.16 M40,13.37c-5.72,0-6.43,0.02-8.68,0.13
			c-2.24,0.1-3.77,0.46-5.11,0.98c-1.38,0.54-2.56,1.26-3.73,2.43c-1.17,1.17-1.89,2.35-2.43,3.73c-0.52,1.34-0.88,2.87-0.98,5.11
			c-0.1,2.25-0.13,2.96-0.13,8.68c0,5.72,0.02,6.43,0.13,8.68c0.1,2.24,0.46,3.77,0.98,5.11c0.54,1.38,1.26,2.56,2.43,3.73
			c1.17,1.17,2.34,1.89,3.73,2.43c1.34,0.52,2.87,0.88,5.11,0.98c2.25,0.1,2.96,0.13,8.68,0.13c5.72,0,6.43-0.02,8.68-0.13
			c2.24-0.1,3.77-0.46,5.11-0.98c1.38-0.54,2.56-1.26,3.73-2.43c1.17-1.17,1.89-2.35,2.43-3.73c0.52-1.34,0.88-2.87,0.98-5.11
			c0.1-2.25,0.13-2.96,0.13-8.68c0-5.72-0.02-6.43-0.13-8.68c-0.1-2.24-0.46-3.77-0.98-5.11c-0.54-1.38-1.26-2.56-2.43-3.73
			c-1.17-1.17-2.34-1.89-3.73-2.43c-1.34-0.52-2.87-0.88-5.11-0.98C46.43,13.39,45.72,13.37,40,13.37"/>
		<path id="XMLID_2073_" class="st0" d="M40,23.61c-5.97,0-10.81,4.84-10.81,10.81c0,5.97,4.84,10.81,10.81,10.81
			c5.97,0,10.81-4.84,10.81-10.81C50.81,28.45,45.97,23.61,40,23.61 M40,41.44c-3.88,0-7.02-3.14-7.02-7.02
			c0-3.88,3.14-7.02,7.02-7.02s7.02,3.14,7.02,7.02C47.02,38.3,43.88,41.44,40,41.44"/>
		<path id="XMLID_2025_" class="st0" d="M53.77,23.18c0,1.4-1.13,2.53-2.53,2.53c-1.4,0-2.53-1.13-2.53-2.53
			c0-1.4,1.13-2.53,2.53-2.53C52.63,20.66,53.77,21.79,53.77,23.18"/>
	</g>
</g>
</svg>
