<?xml version="1.0" encoding="utf-8"?>
<!-- Generator: Adobe Illustrator 24.1.1, SVG Export Plug-In . SVG Version: 6.00 Build 0)  -->
<svg version="1.1" id="Layer_1" xmlns="http://www.w3.org/2000/svg" xmlns:xlink="http://www.w3.org/1999/xlink" x="0px" y="0px"
	 viewBox="0 0 80 80" style="enable-background:new 0 0 80 80;" xml:space="preserve">
<style type="text/css">
	.st0{fill:#8A8A8A;}
	.st1{fill:none;stroke:#8A8A8A;stroke-width:2.0382;stroke-miterlimit:10;}
</style>
<g>
	<g>
		<path class="st0" d="M19.51,59.6h8.26c1.94,0,3.89,0,3.89,2.19v1.62c0,2.19-1.94,2.19-3.89,2.19h-0.16l4.7,4.7h-2.92l-4.69-4.7
			h-2.75v4.7h-2.43V59.6z M28.26,64.21c0.48,0,0.97,0,0.97-0.57v-2.11c0-0.57-0.48-0.57-0.97-0.57h-6.32v3.24H28.26z"/>
		<path class="st0" d="M33.93,61.78c0-2.19,1.94-2.19,3.89-2.19h4.37c1.94,0,3.89,0,3.89,2.19v6.32c0,2.19-1.94,2.19-3.89,2.19
			h-4.37c-1.94,0-3.89,0-3.89-2.19V61.78z M37.33,68.91h5.34c0.48,0,0.97,0,0.97-0.57v-6.8c0-0.57-0.48-0.57-0.97-0.57h-5.34
			c-0.49,0-0.97,0-0.97,0.57v6.8C36.36,68.91,36.84,68.91,37.33,68.91z"/>
		<path class="st0" d="M48.35,61.78c0-2.19,1.94-2.19,3.89-2.19h7.45v1.38h-7.93c-0.49,0-0.97,0-0.97,0.57v6.8
			c0,0.57,0.48,0.57,0.97,0.57h5.34c0.48,0,0.97,0,0.97-0.57v-3.32h-2.43v-1.38h4.86v4.45c0,2.19-1.94,2.19-3.89,2.19h-4.37
			c-1.94,0-3.89,0-3.89-2.19V61.78z"/>
	</g>
	<path id="XMLID_2082_" class="st1" d="M40,78.79L40,78.79C18.58,78.79,1.21,61.42,1.21,40v0C1.21,18.58,18.58,1.21,40,1.21h0
		c21.42,0,38.79,17.37,38.79,38.79v0C78.79,61.42,61.42,78.79,40,78.79z"/>
	<path id="XMLID_2081_" class="st0" d="M34.09,55.33h9.44V31.68h6.59l0.7-7.92h-7.29c0,0,0-2.96,0-4.51c0-1.87,0.37-2.6,2.18-2.6
		c1.45,0,5.11,0,5.11,0V8.44c0,0-5.39,0-6.54,0c-7.03,0-10.19,3.09-10.19,9.02c0,5.16,0,6.31,0,6.31h-4.91v8.02h4.91V55.33z"/>
</g>
</svg>
