<?xml version="1.0" encoding="UTF-8"?>
<svg xmlns="http://www.w3.org/2000/svg" xmlns:xlink="http://www.w3.org/1999/xlink" width="80pt" height="80pt" viewBox="0 0 80 80" version="1.1">
<g id="surface1">
<path style="fill:none;stroke-width:1;stroke-linecap:butt;stroke-linejoin:miter;stroke:rgb(50.196078%,50.196078%,50.196078%);stroke-opacity:1;stroke-miterlimit:10;" d="M 78.890625 40 C 78.890625 61.476562 61.476562 78.890625 40 78.890625 C 18.523438 78.890625 1.109375 61.476562 1.109375 40 C 1.109375 18.523438 18.523438 1.109375 40 1.109375 C 61.476562 1.109375 78.890625 18.523438 78.890625 40 Z M 78.890625 40 "/>
<path style=" stroke:none;fill-rule:nonzero;fill:rgb(50.196078%,50.196078%,50.196078%);fill-opacity:1;" d="M 61.308594 16.730469 C 59.949219 17.351562 58.441406 17.71875 56.960938 17.96875 C 57.660156 17.851562 58.679688 16.589844 59.101562 16.078125 C 59.730469 15.300781 60.25 14.410156 60.539062 13.449219 C 60.578125 13.378906 60.609375 13.28125 60.53125 13.21875 C 60.441406 13.179688 60.371094 13.199219 60.300781 13.238281 C 58.660156 14.121094 56.960938 14.761719 55.148438 15.210938 C 55 15.25 54.890625 15.210938 54.789062 15.121094 C 54.640625 14.949219 54.5 14.789062 54.339844 14.660156 C 53.578125 14.011719 52.761719 13.511719 51.839844 13.128906 C 50.628906 12.640625 49.308594 12.429688 48.011719 12.511719 C 46.738281 12.589844 45.5 12.949219 44.378906 13.539062 C 43.25 14.128906 42.25 14.949219 41.449219 15.929688 C 40.621094 16.949219 40.011719 18.160156 39.699219 19.429688 C 39.398438 20.660156 39.421875 21.878906 39.609375 23.128906 C 39.640625 23.339844 39.621094 23.359375 39.429688 23.339844 C 32.351562 22.289062 26.488281 19.761719 21.730469 14.328125 C 21.519531 14.089844 21.410156 14.089844 21.238281 14.351562 C 19.160156 17.46875 20.171875 22.488281 22.769531 24.960938 C 23.121094 25.289062 23.46875 25.621094 23.859375 25.921875 C 23.71875 25.949219 21.988281 25.761719 20.441406 24.960938 C 20.230469 24.828125 20.128906 24.898438 20.109375 25.140625 C 20.089844 25.480469 20.121094 25.789062 20.171875 26.148438 C 20.570312 29.320312 22.761719 32.238281 25.761719 33.390625 C 26.121094 33.539062 26.511719 33.671875 26.898438 33.738281 C 26.21875 33.890625 25.511719 34 23.550781 33.839844 C 23.308594 33.789062 23.210938 33.921875 23.308594 34.148438 C 24.78125 38.171875 27.96875 39.359375 30.351562 40.039062 C 30.671875 40.101562 30.988281 40.101562 31.308594 40.171875 C 31.289062 40.199219 31.269531 40.199219 31.25 40.230469 C 30.460938 41.441406 27.71875 42.328125 26.441406 42.78125 C 24.121094 43.589844 21.589844 43.960938 19.140625 43.710938 C 18.75 43.648438 18.660156 43.660156 18.558594 43.710938 C 18.449219 43.78125 18.550781 43.871094 18.671875 43.96875 C 19.171875 44.300781 19.671875 44.589844 20.191406 44.871094 C 21.75 45.699219 23.371094 46.351562 25.070312 46.820312 C 33.839844 49.238281 43.71875 47.460938 50.308594 40.921875 C 55.480469 35.78125 57.289062 28.699219 57.289062 21.601562 C 57.289062 21.320312 57.621094 21.171875 57.808594 21.019531 C 59.160156 20.011719 60.238281 18.800781 61.238281 17.449219 C 61.46875 17.148438 61.46875 16.878906 61.46875 16.769531 C 61.46875 16.75 61.46875 16.730469 61.46875 16.730469 C 61.480469 16.609375 61.480469 16.648438 61.308594 16.730469 Z M 61.308594 16.730469 "/>
<path style=" stroke:none;fill-rule:nonzero;fill:rgb(50.196078%,50.196078%,50.196078%);fill-opacity:1;" d="M 31.949219 67.839844 L 27.421875 67.839844 L 20.511719 59.949219 L 27 59.949219 L 27 56.890625 L 19.921875 56.890625 L 19.921875 67.839844 L 16.03125 67.839844 L 16.03125 55 L 30.78125 55 L 30.78125 61.839844 L 26.699219 61.839844 Z M 31.949219 67.839844 "/>
<path style=" stroke:none;fill-rule:nonzero;fill:rgb(50.196078%,50.196078%,50.196078%);fill-opacity:1;" d="M 35.519531 67.839844 L 32.398438 64.300781 L 32.398438 55 L 46.960938 55 L 46.960938 67.839844 Z M 36.230469 56.890625 L 36.230469 63.46875 L 38.410156 65.949219 L 43.121094 65.949219 L 43.121094 56.890625 Z M 36.230469 56.890625 "/>
<path style=" stroke:none;fill-rule:nonzero;fill:rgb(50.196078%,50.196078%,50.196078%);fill-opacity:1;" d="M 63.410156 60.851562 L 63.410156 67.839844 L 48.789062 67.839844 L 48.789062 55 L 63.980469 55 L 62.351562 56.890625 L 52.699219 56.890625 L 52.699219 65.949219 L 59.578125 65.949219 L 59.578125 60.851562 Z M 63.410156 60.851562 "/>
</g>
</svg>
