<svg xmlns="http://www.w3.org/2000/svg" width="64" height="64" fill="none" viewBox="0 0 64 64">
    <path fill="#000" d="M38 41.5V45c0 .7-.2 1.3-.7 1.8l-1.4 1.6c-.2.2 0 .6.2.6H48c.3 0 .4-.3.2-.6l-1.5-1.6c-.5-.5-.7-1.1-.7-1.8v-3.5h-8z"/>
    <path fill="#000" d="M59 17c.5 0 1 .4 1 1v22c0 .6-.4 1-1 1H25c-.5 0-1-.4-1-1V18c0-.6.4-1 1-1h34zm0-1H25c-1.1 0-2 .9-2 2v22c0 1.1.9 2 2 2h34c1.1 0 2-.9 2-2V18c0-1.1-.9-2-2-2zM18.8 17c.7 0 1.2.5 1.2 1.2v28.6c0 .7-.5 1.2-1.2 1.2H6.2c-.7 0-1.2-.5-1.2-1.2V18c0-.6.4-1 1-1h12.8zm0-1H6c-1.1 0-2 .9-2 2v28.8C4 48 5 49 6.2 49h12.6c1.2 0 2.2-1 2.2-2.2V18.2c0-1.2-1-2.2-2.2-2.2z"/>
    <path fill="#000" d="M16.7 20H8c-.3 0-.5.2-.5.5s.2.5.5.5h8.7c.3 0 .5-.2.5-.5s-.3-.5-.5-.5zM16.7 22H8c-.3 0-.5.2-.5.5s.2.5.5.5h8.7c.3 0 .5-.2.5-.5s-.3-.5-.5-.5zM12.3 37c-2.2 0-3.9 1.8-3.8 3.9 0 2.1 1.7 3.8 3.8 3.8h.1c2.1 0 3.8-1.8 3.8-3.9-.1-2.1-1.8-3.8-3.9-3.8zm2.2 6.2c-.6.6-1.4.8-2.2.8-1.1 0-2.1-.6-2.6-1.5-.9-1.8-.3-3.7 1.5-4.6.4-.2.7-.3 1.1-.3 1.7 0 3.1 1.2 3.3 2.9 0 1-.4 2-1.1 2.7z"/>
    <path fill="#000" d="M12.6 39.2c-1.1-.2-2.1.8-1.9 1.9.1.7.7 1.3 1.4 1.4 1.1.2 2.1-.8 1.9-1.9-.1-.8-.7-1.3-1.4-1.4z"/>
</svg>
