<?xml version="1.0" encoding="UTF-8"?>
<svg xmlns="http://www.w3.org/2000/svg" xmlns:xlink="http://www.w3.org/1999/xlink" width="32px" height="32px" viewBox="0 0 32 32" version="1.1">
<g id="surface1">
<path style=" stroke:none;fill-rule:nonzero;fill:rgb(47.45098%,47.45098%,47.45098%);fill-opacity:1;" d="M 28.039062 16 C 28.039062 16.441406 27.089844 16.820312 27.039062 17.238281 C 26.988281 17.671875 27.828125 18.261719 27.730469 18.679688 C 27.628906 19.101562 26.628906 19.269531 26.480469 19.671875 C 26.339844 20.078125 27.03125 20.828125 26.839844 21.21875 C 26.648438 21.609375 25.628906 21.539062 25.398438 21.910156 C 25.171875 22.28125 25.671875 23.160156 25.398438 23.5 C 25.128906 23.839844 24.148438 23.550781 23.839844 23.851562 C 23.53125 24.160156 23.828125 25.140625 23.488281 25.410156 C 23.148438 25.679688 22.261719 25.179688 21.898438 25.410156 C 21.539062 25.640625 21.601562 26.660156 21.210938 26.851562 C 20.820312 27.039062 20.070312 26.351562 19.660156 26.488281 C 19.25 26.628906 19.089844 27.640625 18.671875 27.738281 C 18.25 27.828125 17.671875 26.988281 17.230469 27.050781 C 16.808594 27.101562 16.421875 28.050781 15.988281 28.050781 C 15.558594 28.050781 15.171875 27.101562 14.75 27.050781 C 14.320312 27 13.730469 27.839844 13.308594 27.738281 C 12.890625 27.640625 12.71875 26.640625 12.320312 26.488281 C 11.910156 26.351562 11.160156 27.039062 10.769531 26.839844 C 10.378906 26.648438 10.449219 25.628906 10.078125 25.398438 C 9.710938 25.171875 8.820312 25.671875 8.488281 25.398438 C 8.148438 25.128906 8.441406 24.148438 8.140625 23.839844 C 7.828125 23.53125 6.851562 23.828125 6.578125 23.488281 C 6.308594 23.148438 6.808594 22.261719 6.578125 21.898438 C 6.351562 21.539062 5.328125 21.601562 5.140625 21.210938 C 4.949219 20.820312 5.640625 20.070312 5.488281 19.660156 C 5.351562 19.25 4.339844 19.089844 4.238281 18.671875 C 4.148438 18.25 4.988281 17.671875 4.929688 17.230469 C 4.890625 16.808594 3.949219 16.429688 3.949219 15.988281 C 3.949219 15.550781 4.898438 15.171875 4.949219 14.75 C 5 14.320312 4.160156 13.730469 4.261719 13.308594 C 4.359375 12.890625 5.359375 12.71875 5.511719 12.320312 C 5.648438 11.910156 4.960938 11.160156 5.148438 10.769531 C 5.339844 10.378906 6.359375 10.449219 6.589844 10.078125 C 6.820312 9.710938 6.320312 8.820312 6.589844 8.488281 C 6.859375 8.148438 7.839844 8.441406 8.148438 8.140625 C 8.460938 7.839844 8.160156 6.859375 8.5 6.589844 C 8.839844 6.320312 9.730469 6.820312 10.089844 6.589844 C 10.449219 6.359375 10.390625 5.339844 10.78125 5.148438 C 11.171875 4.960938 11.921875 5.648438 12.328125 5.511719 C 12.738281 5.371094 12.898438 4.359375 13.320312 4.261719 C 13.738281 4.171875 14.320312 5.011719 14.761719 4.949219 C 15.179688 4.898438 15.570312 3.949219 16 3.949219 C 16.429688 3.949219 16.820312 4.898438 17.238281 4.949219 C 17.671875 5 18.261719 4.160156 18.679688 4.261719 C 19.101562 4.359375 19.269531 5.359375 19.671875 5.511719 C 20.078125 5.648438 20.828125 4.960938 21.21875 5.148438 C 21.609375 5.339844 21.539062 6.359375 21.910156 6.589844 C 22.28125 6.820312 23.171875 6.320312 23.5 6.589844 C 23.839844 6.859375 23.550781 7.839844 23.851562 8.148438 C 24.160156 8.460938 25.140625 8.160156 25.410156 8.5 C 25.679688 8.839844 25.179688 9.730469 25.410156 10.089844 C 25.640625 10.449219 26.660156 10.390625 26.851562 10.78125 C 27.039062 11.171875 26.351562 11.921875 26.488281 12.328125 C 26.628906 12.738281 27.640625 12.898438 27.738281 13.320312 C 27.828125 13.738281 26.988281 14.320312 27.050781 14.761719 C 27.089844 15.179688 28.039062 15.558594 28.039062 16 Z M 28.039062 16 "/>
<path style="fill:none;stroke-width:1;stroke-linecap:butt;stroke-linejoin:miter;stroke:rgb(86.666667%,86.666667%,86.666667%);stroke-opacity:1;stroke-miterlimit:10;" d="M 26.378906 16 C 26.378906 21.738281 21.730469 26.378906 16 26.378906 C 10.269531 26.378906 5.621094 21.730469 5.621094 16 C 5.621094 10.269531 10.269531 5.621094 16 5.621094 C 21.730469 5.621094 26.378906 10.269531 26.378906 16 Z M 26.378906 16 "/>
<path style=" stroke:none;fill-rule:nonzero;fill:rgb(100%,100%,100%);fill-opacity:1;" d="M 26.378906 16 C 26.378906 21.738281 21.730469 26.378906 16 26.378906 C 10.269531 26.378906 5.621094 21.730469 5.621094 16 C 5.621094 10.269531 10.269531 5.621094 16 5.621094 C 21.730469 5.621094 26.378906 10.269531 26.378906 16 Z M 26.378906 16 "/>
<path style=" stroke:none;fill-rule:nonzero;fill:rgb(47.45098%,47.45098%,47.45098%);fill-opacity:1;" d="M 21.660156 16 C 21.660156 19.121094 19.128906 21.660156 16 21.660156 C 12.878906 21.660156 10.339844 19.128906 10.339844 16 C 10.339844 12.878906 12.871094 10.339844 16 10.339844 C 19.121094 10.339844 21.660156 12.878906 21.660156 16 Z M 21.660156 16 "/>
<path style=" stroke:none;fill-rule:nonzero;fill:rgb(47.45098%,47.45098%,47.45098%);fill-opacity:1;" d="M 12.621094 10.148438 L 11.699219 8.078125 L 13.101562 7.460938 L 13.28125 7.859375 L 12.398438 8.25 L 12.558594 8.609375 L 13.371094 8.25 L 13.550781 8.648438 L 12.738281 9.011719 L 12.96875 9.53125 L 13.851562 9.140625 L 14.03125 9.539062 Z M 12.621094 10.148438 "/>
<path style=" stroke:none;fill-rule:nonzero;fill:rgb(47.45098%,47.45098%,47.45098%);fill-opacity:1;" d="M 14.011719 9.5 L 14.460938 7.160156 L 15.078125 7.078125 L 16.148438 9.210938 L 15.570312 9.289062 L 15.359375 8.851562 L 14.660156 8.949219 L 14.589844 9.429688 Z M 15.171875 8.460938 L 14.839844 7.75 L 14.710938 8.519531 Z M 15.171875 8.460938 "/>
<path style=" stroke:none;fill-rule:nonzero;fill:rgb(47.45098%,47.45098%,47.45098%);fill-opacity:1;" d="M 16.898438 9.390625 C 16.730469 9.371094 16.578125 9.328125 16.460938 9.269531 C 16.328125 9.21875 16.21875 9.160156 16.121094 9.089844 L 16.191406 8.558594 L 16.238281 8.570312 C 16.339844 8.679688 16.449219 8.769531 16.578125 8.839844 C 16.710938 8.910156 16.839844 8.960938 16.960938 8.980469 C 16.988281 8.980469 17.03125 8.988281 17.089844 8.988281 C 17.148438 8.988281 17.191406 8.988281 17.21875 8.980469 C 17.261719 8.96875 17.300781 8.949219 17.328125 8.921875 C 17.359375 8.890625 17.378906 8.851562 17.390625 8.800781 C 17.398438 8.738281 17.378906 8.699219 17.339844 8.660156 C 17.300781 8.621094 17.25 8.589844 17.191406 8.558594 C 17.121094 8.53125 17.039062 8.5 16.949219 8.46875 C 16.871094 8.441406 16.789062 8.398438 16.71875 8.371094 C 16.558594 8.289062 16.449219 8.179688 16.378906 8.070312 C 16.308594 7.960938 16.300781 7.820312 16.320312 7.660156 C 16.351562 7.449219 16.460938 7.289062 16.660156 7.191406 C 16.859375 7.089844 17.089844 7.050781 17.351562 7.089844 C 17.488281 7.109375 17.621094 7.140625 17.738281 7.191406 C 17.871094 7.238281 17.980469 7.289062 18.078125 7.351562 L 18.011719 7.859375 L 17.960938 7.851562 C 17.898438 7.769531 17.800781 7.699219 17.691406 7.628906 C 17.578125 7.558594 17.460938 7.519531 17.328125 7.5 C 17.28125 7.5 17.238281 7.5 17.199219 7.5 C 17.160156 7.5 17.121094 7.511719 17.070312 7.519531 C 17.03125 7.53125 17 7.550781 16.96875 7.578125 C 16.941406 7.609375 16.921875 7.640625 16.921875 7.679688 C 16.910156 7.738281 16.921875 7.789062 16.960938 7.820312 C 17 7.859375 17.070312 7.898438 17.179688 7.949219 C 17.25 7.980469 17.320312 8.011719 17.390625 8.03125 C 17.460938 8.058594 17.53125 8.089844 17.601562 8.128906 C 17.75 8.210938 17.851562 8.300781 17.910156 8.398438 C 17.980469 8.511719 18 8.640625 17.980469 8.800781 C 17.949219 9.019531 17.839844 9.191406 17.640625 9.300781 C 17.449219 9.398438 17.199219 9.429688 16.898438 9.390625 Z M 16.898438 9.390625 "/>
<path style=" stroke:none;fill-rule:nonzero;fill:rgb(47.45098%,47.45098%,47.45098%);fill-opacity:1;" d="M 20.660156 8.261719 L 19.410156 9.140625 L 19.019531 10 L 18.5 9.769531 L 18.878906 8.941406 L 18.710938 7.390625 L 19.300781 7.660156 L 19.371094 8.578125 L 20.101562 8 Z M 20.660156 8.261719 "/>
<path style=" stroke:none;fill-rule:nonzero;fill:rgb(47.45098%,47.45098%,47.45098%);fill-opacity:1;" d="M 10.808594 23.660156 L 10.339844 23.261719 L 10.398438 22.339844 L 10.261719 22.21875 L 9.78125 22.78125 L 9.398438 22.449219 L 10.710938 20.929688 L 11.320312 21.460938 C 11.398438 21.53125 11.46875 21.601562 11.53125 21.671875 C 11.589844 21.738281 11.621094 21.808594 11.648438 21.878906 C 11.671875 21.960938 11.679688 22.039062 11.660156 22.121094 C 11.648438 22.199219 11.601562 22.28125 11.53125 22.371094 C 11.429688 22.488281 11.320312 22.558594 11.210938 22.578125 C 11.089844 22.609375 10.980469 22.601562 10.851562 22.570312 Z M 11.101562 22.078125 C 11.128906 22.039062 11.160156 22 11.171875 21.960938 C 11.179688 21.921875 11.171875 21.878906 11.148438 21.828125 C 11.140625 21.800781 11.109375 21.769531 11.078125 21.738281 C 11.050781 21.710938 11.019531 21.679688 10.96875 21.640625 L 10.839844 21.53125 L 10.488281 21.941406 L 10.601562 22.03125 C 10.648438 22.078125 10.699219 22.109375 10.738281 22.140625 C 10.78125 22.160156 10.820312 22.179688 10.871094 22.179688 C 10.910156 22.179688 10.949219 22.179688 10.980469 22.160156 C 11.03125 22.148438 11.070312 22.121094 11.101562 22.078125 Z M 11.101562 22.078125 "/>
<path style=" stroke:none;fill-rule:nonzero;fill:rgb(47.45098%,47.45098%,47.45098%);fill-opacity:1;" d="M 11.199219 23.871094 L 12.128906 22.089844 L 13.339844 22.710938 L 13.160156 23.050781 L 12.398438 22.648438 L 12.238281 22.960938 L 12.941406 23.320312 L 12.761719 23.660156 L 12.058594 23.300781 L 11.828125 23.75 L 12.589844 24.148438 L 12.410156 24.488281 Z M 11.199219 23.871094 "/>
<path style=" stroke:none;fill-rule:nonzero;fill:rgb(47.45098%,47.45098%,47.45098%);fill-opacity:1;" d="M 13.351562 24.808594 L 13.769531 23.238281 L 13.199219 23.089844 L 13.300781 22.71875 L 14.941406 23.160156 L 14.839844 23.53125 L 14.269531 23.378906 L 13.851562 24.949219 Z M 13.351562 24.808594 "/>
<path style=" stroke:none;fill-rule:nonzero;fill:rgb(47.45098%,47.45098%,47.45098%);fill-opacity:1;" d="M 15.71875 25.230469 C 15.449219 25.21875 15.238281 25.148438 15.101562 25.019531 C 14.960938 24.878906 14.890625 24.691406 14.898438 24.441406 L 14.941406 23.160156 L 15.441406 23.171875 L 15.398438 24.421875 C 15.398438 24.558594 15.421875 24.660156 15.46875 24.730469 C 15.519531 24.800781 15.609375 24.839844 15.71875 24.839844 C 15.839844 24.839844 15.921875 24.808594 15.980469 24.75 C 16.039062 24.679688 16.070312 24.578125 16.070312 24.441406 L 16.109375 23.191406 L 16.609375 23.199219 L 16.570312 24.480469 C 16.558594 24.730469 16.488281 24.910156 16.339844 25.039062 C 16.210938 25.179688 16 25.238281 15.71875 25.230469 Z M 15.71875 25.230469 "/>
<path style=" stroke:none;fill-rule:nonzero;fill:rgb(47.45098%,47.45098%,47.45098%);fill-opacity:1;" d="M 19.078125 24.730469 L 18.480469 24.871094 L 17.769531 24.269531 L 17.589844 24.308594 L 17.75 25.03125 L 17.261719 25.140625 L 16.820312 23.179688 L 17.609375 23 C 17.71875 22.980469 17.820312 22.960938 17.898438 22.960938 C 17.980469 22.960938 18.058594 22.960938 18.140625 22.988281 C 18.21875 23.019531 18.289062 23.058594 18.351562 23.121094 C 18.410156 23.179688 18.449219 23.261719 18.46875 23.371094 C 18.5 23.519531 18.5 23.648438 18.449219 23.761719 C 18.398438 23.871094 18.328125 23.96875 18.230469 24.039062 Z M 17.96875 23.550781 C 17.960938 23.5 17.941406 23.460938 17.910156 23.429688 C 17.878906 23.398438 17.839844 23.378906 17.800781 23.371094 C 17.769531 23.371094 17.730469 23.371094 17.691406 23.371094 C 17.648438 23.371094 17.609375 23.378906 17.550781 23.398438 L 17.390625 23.441406 L 17.511719 23.96875 L 17.648438 23.941406 C 17.71875 23.929688 17.78125 23.910156 17.820312 23.890625 C 17.871094 23.871094 17.898438 23.839844 17.929688 23.808594 C 17.960938 23.78125 17.96875 23.738281 17.980469 23.710938 C 17.988281 23.648438 17.980469 23.601562 17.96875 23.550781 Z M 17.96875 23.550781 "/>
<path style=" stroke:none;fill-rule:nonzero;fill:rgb(47.45098%,47.45098%,47.45098%);fill-opacity:1;" d="M 21.039062 23.738281 L 20.609375 23.96875 L 19.269531 23.089844 L 19.921875 24.328125 L 19.511719 24.539062 L 18.570312 22.761719 L 19.121094 22.46875 L 20.21875 23.191406 L 19.679688 22.171875 L 20.089844 21.960938 Z M 21.039062 23.738281 "/>
<path style=" stroke:none;fill-rule:nonzero;fill:rgb(47.45098%,47.45098%,47.45098%);fill-opacity:1;" d="M 22.089844 22.929688 C 21.96875 23.03125 21.871094 23.109375 21.761719 23.171875 C 21.648438 23.230469 21.550781 23.269531 21.441406 23.308594 L 21.121094 22.949219 L 21.148438 22.921875 C 21.28125 22.921875 21.410156 22.890625 21.53125 22.851562 C 21.648438 22.800781 21.75 22.738281 21.839844 22.671875 C 21.859375 22.648438 21.890625 22.621094 21.921875 22.589844 C 21.949219 22.550781 21.96875 22.519531 21.988281 22.488281 C 22 22.460938 22.011719 22.421875 22.011719 22.378906 C 22.011719 22.339844 22 22.308594 21.960938 22.269531 C 21.929688 22.230469 21.890625 22.210938 21.828125 22.21875 C 21.78125 22.21875 21.730469 22.238281 21.679688 22.261719 C 21.609375 22.289062 21.550781 22.328125 21.480469 22.371094 C 21.410156 22.410156 21.339844 22.441406 21.28125 22.46875 C 21.128906 22.53125 21 22.550781 20.878906 22.53125 C 20.769531 22.511719 20.671875 22.441406 20.570312 22.339844 C 20.441406 22.199219 20.398438 22.03125 20.441406 21.839844 C 20.480469 21.648438 20.589844 21.46875 20.769531 21.308594 C 20.859375 21.230469 20.960938 21.160156 21.058594 21.101562 C 21.160156 21.039062 21.269531 20.988281 21.359375 20.960938 L 21.660156 21.300781 L 21.628906 21.328125 C 21.53125 21.328125 21.429688 21.351562 21.320312 21.390625 C 21.210938 21.429688 21.109375 21.480469 21.03125 21.558594 C 21 21.589844 20.96875 21.621094 20.949219 21.640625 C 20.929688 21.671875 20.910156 21.699219 20.890625 21.738281 C 20.878906 21.769531 20.871094 21.808594 20.871094 21.839844 C 20.871094 21.871094 20.878906 21.910156 20.910156 21.929688 C 20.941406 21.96875 20.980469 21.988281 21.03125 21.988281 C 21.078125 21.988281 21.148438 21.960938 21.238281 21.910156 C 21.300781 21.878906 21.359375 21.839844 21.421875 21.808594 C 21.480469 21.78125 21.539062 21.75 21.609375 21.71875 C 21.75 21.660156 21.871094 21.648438 21.980469 21.660156 C 22.089844 21.679688 22.191406 21.738281 22.28125 21.839844 C 22.410156 21.988281 22.460938 22.160156 22.421875 22.359375 C 22.410156 22.570312 22.300781 22.75 22.089844 22.929688 Z M 22.089844 22.929688 "/>
<path style=" stroke:none;fill-rule:evenodd;fill:rgb(100%,100%,100%);fill-opacity:1;" d="M 16.210938 12.710938 C 16.328125 12.730469 16.449219 12.738281 16.570312 12.761719 C 17.289062 12.890625 17.890625 13.21875 18.390625 13.738281 C 18.710938 14.070312 18.941406 14.460938 19.089844 14.890625 C 19.101562 14.910156 19.101562 14.929688 19.109375 14.960938 C 19.039062 14.949219 18.980469 14.921875 18.921875 14.921875 C 18.800781 14.921875 18.679688 14.921875 18.558594 14.921875 C 18.519531 14.921875 18.5 14.910156 18.488281 14.878906 C 18.328125 14.519531 18.101562 14.210938 17.808594 13.949219 C 17.449219 13.628906 17.03125 13.421875 16.558594 13.320312 C 16.308594 13.261719 16.050781 13.25 15.800781 13.269531 C 15.230469 13.308594 14.71875 13.511719 14.28125 13.871094 C 13.960938 14.128906 13.710938 14.449219 13.53125 14.820312 C 13.519531 14.851562 13.511719 14.878906 13.488281 14.910156 C 13.78125 14.910156 14.058594 14.910156 14.359375 14.910156 C 13.988281 15.371094 13.628906 15.808594 13.261719 16.269531 C 13.171875 16.148438 13.070312 16.039062 12.980469 15.929688 C 12.710938 15.601562 12.449219 15.269531 12.179688 14.949219 C 12.179688 14.949219 12.171875 14.941406 12.160156 14.941406 C 12.160156 14.941406 12.160156 14.929688 12.160156 14.929688 C 12.378906 14.929688 12.609375 14.929688 12.828125 14.929688 C 12.878906 14.929688 12.898438 14.910156 12.921875 14.871094 C 13.070312 14.460938 13.300781 14.089844 13.601562 13.769531 C 14.101562 13.238281 14.710938 12.910156 15.429688 12.789062 C 15.550781 12.769531 15.671875 12.761719 15.789062 12.738281 C 15.929688 12.710938 16.070312 12.710938 16.210938 12.710938 Z M 16.210938 12.710938 "/>
<path style=" stroke:none;fill-rule:evenodd;fill:rgb(100%,100%,100%);fill-opacity:1;" d="M 15.808594 19.289062 C 15.710938 19.28125 15.601562 19.269531 15.5 19.25 C 14.230469 19.019531 13.371094 18.289062 12.898438 17.089844 C 12.898438 17.078125 12.890625 17.058594 12.890625 17.058594 C 13.039062 17.070312 13.191406 17.101562 13.339844 17.089844 C 13.460938 17.078125 13.488281 17.121094 13.539062 17.21875 C 13.941406 18.011719 14.570312 18.511719 15.441406 18.691406 C 16.671875 18.949219 17.929688 18.320312 18.460938 17.179688 C 18.46875 17.160156 18.480469 17.140625 18.488281 17.109375 C 18.210938 17.109375 17.929688 17.109375 17.628906 17.109375 C 18 16.648438 18.359375 16.210938 18.730469 15.761719 C 19.089844 16.210938 19.449219 16.648438 19.820312 17.109375 C 19.789062 17.109375 19.769531 17.109375 19.75 17.109375 C 19.550781 17.109375 19.351562 17.109375 19.148438 17.109375 C 19.101562 17.109375 19.078125 17.121094 19.058594 17.171875 C 18.671875 18.148438 17.980469 18.808594 16.980469 19.148438 C 16.738281 19.230469 16.488281 19.28125 16.238281 19.289062 C 16.21875 19.289062 16.199219 19.300781 16.179688 19.300781 C 16.070312 19.289062 15.941406 19.289062 15.808594 19.289062 Z M 15.808594 19.289062 "/>
<path style=" stroke:none;fill-rule:nonzero;fill:rgb(47.45098%,47.45098%,47.45098%);fill-opacity:1;" d="M 8.730469 18.03125 L 9.089844 18.75 L 9.878906 18.871094 L 9.300781 19.421875 L 9.441406 20.21875 L 8.730469 19.839844 L 8.019531 20.21875 L 8.148438 19.421875 L 7.578125 18.871094 L 8.378906 18.75 Z M 8.730469 18.03125 "/>
<path style=" stroke:none;fill-rule:nonzero;fill:rgb(47.45098%,47.45098%,47.45098%);fill-opacity:1;" d="M 7.730469 14.179688 L 8.089844 14.898438 L 8.878906 15.019531 L 8.308594 15.578125 L 8.449219 16.371094 L 7.730469 16 L 7.03125 16.371094 L 7.160156 15.578125 L 6.589844 15.019531 L 7.378906 14.898438 Z M 7.730469 14.179688 "/>
<path style=" stroke:none;fill-rule:nonzero;fill:rgb(47.45098%,47.45098%,47.45098%);fill-opacity:1;" d="M 8.75 10.621094 L 9.109375 11.339844 L 9.898438 11.460938 L 9.328125 12.019531 L 9.460938 12.800781 L 8.75 12.429688 L 8.039062 12.800781 L 8.179688 12.019531 L 7.601562 11.460938 L 8.398438 11.339844 Z M 8.75 10.621094 "/>
<path style=" stroke:none;fill-rule:nonzero;fill:rgb(47.45098%,47.45098%,47.45098%);fill-opacity:1;" d="M 23.078125 18.03125 L 22.71875 18.75 L 21.929688 18.871094 L 22.5 19.421875 L 22.371094 20.21875 L 23.078125 19.839844 L 23.789062 20.21875 L 23.648438 19.421875 L 24.230469 18.871094 L 23.429688 18.75 Z M 23.078125 18.03125 "/>
<path style=" stroke:none;fill-rule:nonzero;fill:rgb(47.45098%,47.45098%,47.45098%);fill-opacity:1;" d="M 24.078125 14.179688 L 23.71875 14.898438 L 22.921875 15.019531 L 23.5 15.578125 L 23.359375 16.371094 L 24.078125 16 L 24.78125 16.371094 L 24.648438 15.578125 L 25.21875 15.019531 L 24.429688 14.898438 Z M 24.078125 14.179688 "/>
<path style=" stroke:none;fill-rule:nonzero;fill:rgb(47.45098%,47.45098%,47.45098%);fill-opacity:1;" d="M 23.050781 10.621094 L 22.699219 11.339844 L 21.910156 11.460938 L 22.480469 12.019531 L 22.351562 12.800781 L 23.050781 12.429688 L 23.769531 12.800781 L 23.628906 12.019531 L 24.210938 11.460938 L 23.410156 11.339844 Z M 23.050781 10.621094 "/>
</g>
</svg>
