<svg width="80" height="80" viewBox="0 0 80 80" fill="none" xmlns="http://www.w3.org/2000/svg">
<g clip-path="url(#clip0_849_13932)">
<circle cx="40" cy="40" r="40" fill="#818181"/>
<path d="M40 64C35.6252 64 31.332 62.841 27.5286 60.6454L17.7914 64L19.7911 53.6833C16.6569 49.382 15 44.3216 15 39C15 25.2145 26.2145 14 40 14C53.7855 14 65 25.2145 65 39C65 52.7855 53.7855 64 40 64ZM27.9775 56.5563L28.7284 57.0297C32.1237 59.16 36.017 60.2863 39.9918 60.2863C51.7287 60.2863 61.27 50.7369 61.27 39.0082C61.27 27.2713 51.7205 17.73 39.9918 17.73C28.255 17.73 18.7137 27.2795 18.7137 39.0082C18.7137 43.7829 20.2808 48.3046 23.2354 52.0917L23.7578 52.761L22.6641 58.4009L27.9775 56.5563Z" fill="white"/>
<path d="M27.3816 29.3932C27.3816 29.3932 28.8508 26.8304 30.0424 26.6835C31.2422 26.5366 32.7766 26.5366 33.1929 27.3201C33.6092 28.1036 35.4619 32.6417 35.4619 32.6417C35.4619 32.6417 35.7802 33.4252 35.2905 34.1843C34.8008 34.9433 33.7071 36.037 33.7071 36.037C33.7071 36.037 33.095 36.8206 33.7071 37.6531C34.3193 38.4856 35.266 40.0119 37.2249 41.9708C39.1838 43.9296 42.9382 45.3253 42.9382 45.3253C42.9382 45.3253 43.4769 45.3988 43.8197 45.056C44.1625 44.7132 46.0153 42.3952 46.0153 42.3952C46.0153 42.3952 46.6111 41.628 47.6069 42.0769C48.5945 42.5258 52.8795 44.6642 52.8795 44.6642C52.8795 44.6642 53.3774 44.8519 53.3774 45.6028C53.3774 46.3619 53.0672 48.2146 52.4469 48.835C51.8184 49.4634 49.9902 51.3896 47.2396 51.3896C44.489 51.3896 37.935 49.1533 34.4417 45.66C30.9484 42.1667 27.8468 38.6244 27.1123 35.4004C26.3777 32.1764 26.4756 30.7236 27.3816 29.3932Z" fill="white"/>
</g>
<defs>
<clipPath id="clip0_849_13932">
<rect width="80" height="80" fill="white"/>
</clipPath>
</defs>
</svg>
