<?xml version="1.0" encoding="UTF-8"?>
<svg xmlns="http://www.w3.org/2000/svg" xmlns:xlink="http://www.w3.org/1999/xlink" width="32px" height="32px" viewBox="0 0 32 32" version="1.1">
<g id="surface1">
<path style=" stroke:none;fill-rule:evenodd;fill:rgb(47.45098%,47.45098%,47.45098%);fill-opacity:1;" d="M 7.300781 18.808594 C 8.410156 22.058594 11.289062 24.480469 14.789062 24.941406 C 15.019531 24.5 15.480469 24.199219 16.011719 24.199219 C 16.769531 24.199219 17.378906 24.808594 17.378906 25.570312 C 17.378906 26.328125 16.769531 26.941406 16.011719 26.941406 C 15.421875 26.941406 14.921875 26.570312 14.730469 26.050781 C 10.648438 25.539062 7.308594 22.648438 6.148438 18.808594 L 4.730469 18.808594 C 4.011719 18.808594 3.421875 18.21875 3.421875 17.5 L 3.421875 14.140625 C 3.421875 13.421875 4.011719 12.828125 4.730469 12.828125 L 5.671875 12.828125 C 6.960938 8.339844 11.101562 5.058594 16 5.058594 C 20.898438 5.058594 25.039062 8.339844 26.328125 12.820312 L 27.269531 12.820312 C 27.988281 12.820312 28.578125 13.410156 28.578125 14.128906 L 28.578125 17.488281 C 28.578125 18.210938 27.988281 18.800781 27.269531 18.800781 L 24.699219 18.800781 C 25.019531 17.859375 25.199219 16.851562 25.199219 15.808594 C 25.199219 10.730469 21.078125 6.609375 16 6.609375 C 10.921875 6.609375 6.800781 10.730469 6.800781 15.808594 C 6.800781 16.859375 6.96875 17.871094 7.300781 18.808594 "/>
<path style=" stroke:none;fill-rule:evenodd;fill:rgb(47.45098%,47.45098%,47.45098%);fill-opacity:1;" d="M 16 22.191406 C 12.480469 22.191406 9.628906 19.328125 9.628906 15.820312 C 9.628906 12.300781 12.488281 9.449219 16 9.449219 C 19.519531 9.449219 22.371094 12.308594 22.371094 15.820312 C 22.371094 15.871094 22.371094 15.921875 22.371094 15.96875 L 22.371094 16.019531 C 22.371094 16.058594 22.371094 16.101562 22.371094 16.128906 L 22.371094 16.171875 C 22.371094 16.21875 22.371094 16.269531 22.359375 16.308594 L 22.359375 16.339844 C 22.359375 16.378906 22.359375 16.421875 22.351562 16.449219 L 22.351562 16.5 C 22.351562 16.539062 22.339844 16.570312 22.339844 16.609375 L 22.339844 16.648438 C 22.339844 16.699219 22.328125 16.738281 22.320312 16.789062 L 22.320312 16.828125 C 22.320312 16.859375 22.308594 16.898438 22.300781 16.929688 L 22.289062 16.980469 C 22.289062 17.019531 22.28125 17.058594 22.269531 17.089844 L 22.269531 17.121094 C 22.261719 17.160156 22.25 17.210938 22.238281 17.25 L 22.230469 17.300781 C 22.230469 17.328125 22.21875 17.359375 22.210938 17.390625 L 22.199219 17.441406 C 22.191406 17.480469 22.179688 17.53125 22.171875 17.570312 L 22.160156 17.601562 C 22.148438 17.628906 22.140625 17.671875 22.128906 17.699219 L 22.121094 17.75 C 22.109375 17.78125 22.101562 17.808594 22.089844 17.839844 L 22.078125 17.890625 C 22.070312 17.929688 22.050781 17.96875 22.039062 18.011719 L 22.019531 18.058594 C 22.011719 18.089844 22 18.109375 21.988281 18.140625 L 21.96875 18.199219 C 21.960938 18.21875 21.949219 18.25 21.941406 18.28125 L 21.921875 18.339844 C 21.910156 18.371094 21.890625 18.410156 21.878906 18.441406 L 21.851562 18.5 L 21.820312 18.570312 L 21.789062 18.628906 C 21.78125 18.648438 21.769531 18.679688 21.761719 18.699219 C 21.75 18.730469 21.730469 18.761719 21.710938 18.800781 C 21.699219 18.820312 21.691406 18.839844 21.679688 18.859375 C 21.671875 18.878906 21.660156 18.898438 21.640625 18.929688 L 21.609375 18.980469 C 21.601562 19 21.589844 19.03125 21.570312 19.050781 L 21.550781 19.089844 C 21.519531 19.128906 21.5 19.179688 21.46875 19.21875 L 21.449219 19.261719 C 21.441406 19.28125 21.421875 19.308594 21.398438 19.328125 L 21.378906 19.359375 C 21.328125 19.441406 21.28125 19.511719 21.230469 19.578125 L 21.761719 21.558594 L 19.78125 21.03125 C 19.449219 21.269531 19.089844 21.480469 18.710938 21.648438 C 17.851562 21.980469 16.949219 22.191406 16 22.191406 M 23.519531 23.328125 L 22.550781 19.730469 L 22.550781 19.71875 L 22.578125 19.660156 C 22.601562 19.621094 22.621094 19.589844 22.640625 19.550781 L 22.671875 19.5 C 22.691406 19.46875 22.710938 19.429688 22.71875 19.398438 L 22.75 19.328125 C 22.769531 19.300781 22.78125 19.261719 22.800781 19.230469 C 22.808594 19.210938 22.820312 19.179688 22.839844 19.148438 C 22.851562 19.121094 22.871094 19.089844 22.878906 19.058594 C 22.890625 19.03125 22.898438 19.011719 22.921875 18.980469 C 22.929688 18.949219 22.941406 18.929688 22.960938 18.898438 C 22.96875 18.871094 22.988281 18.839844 23 18.808594 C 23.011719 18.78125 23.019531 18.761719 23.03125 18.730469 C 23.039062 18.699219 23.050781 18.671875 23.070312 18.640625 C 23.078125 18.609375 23.089844 18.589844 23.101562 18.558594 C 23.109375 18.53125 23.121094 18.488281 23.140625 18.460938 L 23.160156 18.390625 C 23.171875 18.351562 23.191406 18.308594 23.199219 18.28125 L 23.21875 18.230469 C 23.230469 18.191406 23.25 18.148438 23.261719 18.109375 L 23.28125 18.058594 C 23.289062 18.019531 23.308594 17.96875 23.320312 17.929688 L 23.328125 17.890625 C 23.339844 17.839844 23.351562 17.789062 23.371094 17.75 L 23.378906 17.710938 C 23.390625 17.660156 23.398438 17.609375 23.410156 17.570312 L 23.421875 17.53125 C 23.429688 17.480469 23.441406 17.429688 23.449219 17.378906 L 23.460938 17.339844 C 23.46875 17.289062 23.480469 17.238281 23.488281 17.179688 L 23.488281 17.160156 C 23.5 17.101562 23.511719 17.050781 23.519531 16.988281 L 23.519531 16.96875 C 23.53125 16.910156 23.53125 16.859375 23.539062 16.800781 L 23.539062 16.78125 C 23.539062 16.71875 23.550781 16.671875 23.558594 16.609375 L 23.558594 16.589844 C 23.558594 16.53125 23.570312 16.46875 23.570312 16.410156 L 23.570312 16.398438 C 23.570312 16.339844 23.578125 16.28125 23.578125 16.210938 L 23.578125 16.199219 C 23.578125 16.140625 23.578125 16.078125 23.578125 16.011719 C 23.578125 15.941406 23.578125 15.878906 23.578125 15.808594 C 23.578125 11.589844 20.160156 8.171875 15.941406 8.171875 C 11.71875 8.171875 8.300781 11.589844 8.300781 15.808594 C 8.300781 20.03125 11.71875 23.449219 15.941406 23.449219 C 16.871094 23.449219 17.769531 23.28125 18.601562 22.96875 C 18.640625 22.960938 18.671875 22.941406 18.710938 22.929688 L 18.78125 22.898438 C 18.808594 22.890625 18.851562 22.871094 18.878906 22.859375 L 19 22.828125 C 19.03125 22.820312 19.070312 22.800781 19.101562 22.789062 C 19.128906 22.78125 19.148438 22.769531 19.179688 22.75 C 19.210938 22.738281 19.238281 22.71875 19.269531 22.710938 L 19.351562 22.671875 C 19.378906 22.660156 19.410156 22.640625 19.429688 22.628906 C 19.460938 22.621094 19.488281 22.601562 19.519531 22.589844 C 19.550781 22.578125 19.570312 22.558594 19.601562 22.550781 C 19.628906 22.539062 19.660156 22.519531 19.691406 22.5 L 19.761719 22.460938 C 19.789062 22.441406 19.820312 22.429688 19.851562 22.410156 C 19.871094 22.398438 19.890625 22.390625 19.910156 22.371094 L 19.921875 22.371094 Z M 23.519531 23.328125 "/>
<path style=" stroke:none;fill-rule:evenodd;fill:rgb(47.45098%,47.45098%,47.45098%);fill-opacity:1;" d="M 12.5 14.488281 C 13.230469 14.488281 13.820312 15.078125 13.820312 15.808594 C 13.820312 16.539062 13.230469 17.128906 12.5 17.128906 C 11.769531 17.128906 11.179688 16.539062 11.179688 15.808594 C 11.171875 15.078125 11.761719 14.488281 12.5 14.488281 M 19.5 14.488281 C 20.230469 14.488281 20.820312 15.078125 20.820312 15.808594 C 20.820312 16.539062 20.230469 17.128906 19.5 17.128906 C 18.769531 17.128906 18.179688 16.539062 18.179688 15.808594 C 18.179688 15.078125 18.769531 14.488281 19.5 14.488281 Z M 16 14.488281 C 16.730469 14.488281 17.320312 15.078125 17.320312 15.808594 C 17.320312 16.539062 16.730469 17.128906 16 17.128906 C 15.269531 17.128906 14.679688 16.539062 14.679688 15.808594 C 14.679688 15.078125 15.269531 14.488281 16 14.488281 Z M 16 14.488281 "/>
</g>
</svg>
