<?xml version="1.0" encoding="UTF-8"?>
<svg xmlns="http://www.w3.org/2000/svg" xmlns:xlink="http://www.w3.org/1999/xlink" width="32px" height="32px" viewBox="0 0 32 32" version="1.1">
<g id="surface1">
<path style=" stroke:none;fill-rule:nonzero;fill:rgb(47.45098%,47.45098%,47.45098%);fill-opacity:1;" d="M 10.710938 16.128906 C 10.710938 15.910156 10.53125 15.730469 10.308594 15.730469 L 3 15.730469 C 2.78125 15.730469 2.601562 15.910156 2.601562 16.128906 C 2.601562 16.351562 2.78125 16.53125 3 16.53125 L 10.308594 16.53125 C 10.53125 16.519531 10.710938 16.351562 10.710938 16.128906 Z M 10.710938 16.128906 "/>
<path style=" stroke:none;fill-rule:nonzero;fill:rgb(47.45098%,47.45098%,47.45098%);fill-opacity:1;" d="M 5.429688 14 L 12.738281 14 C 12.960938 14 13.140625 13.820312 13.140625 13.601562 C 13.140625 13.378906 12.960938 13.199219 12.738281 13.199219 L 5.429688 13.199219 C 5.210938 13.199219 5.03125 13.378906 5.03125 13.601562 C 5.03125 13.820312 5.210938 14 5.429688 14 Z M 5.429688 14 "/>
<path style=" stroke:none;fill-rule:nonzero;fill:rgb(47.45098%,47.45098%,47.45098%);fill-opacity:1;" d="M 29.25 15.101562 L 27.179688 11.261719 C 26.960938 10.859375 26.539062 10.609375 26.078125 10.609375 L 21.949219 10.609375 C 21.789062 10.609375 21.640625 10.640625 21.5 10.699219 L 21.5 10.28125 C 21.5 9.589844 20.941406 9.03125 20.25 9.03125 L 7.96875 9.03125 C 7.28125 9.03125 6.71875 9.589844 6.71875 10.28125 L 6.71875 11.878906 C 6.71875 12.101562 6.898438 12.28125 7.121094 12.28125 C 7.339844 12.28125 7.519531 12.101562 7.519531 11.878906 L 7.519531 10.28125 C 7.519531 10.03125 7.71875 9.828125 7.96875 9.828125 L 20.25 9.828125 C 20.5 9.828125 20.699219 10.03125 20.699219 10.28125 L 20.699219 19.46875 C 20.699219 19.71875 20.5 19.921875 20.25 19.921875 L 15.019531 19.921875 C 14.828125 18.640625 13.730469 17.660156 12.390625 17.660156 C 11.058594 17.660156 9.960938 18.648438 9.761719 19.921875 L 7.988281 19.921875 C 7.738281 19.921875 7.539062 19.71875 7.539062 19.46875 L 7.539062 17.941406 C 7.539062 17.71875 7.359375 17.539062 7.140625 17.539062 C 6.921875 17.539062 6.738281 17.71875 6.738281 17.941406 L 6.738281 19.46875 C 6.738281 20.160156 7.300781 20.71875 7.988281 20.71875 L 9.769531 20.71875 C 9.960938 22 11.058594 22.980469 12.398438 22.980469 C 13.730469 22.980469 14.839844 21.988281 15.03125 20.71875 L 20.25 20.71875 C 20.578125 20.71875 20.878906 20.589844 21.101562 20.378906 C 21.320312 20.589844 21.621094 20.71875 21.949219 20.71875 L 22.421875 20.71875 C 22.609375 22 23.710938 22.980469 25.050781 22.980469 C 26.378906 22.980469 27.480469 21.988281 27.679688 20.71875 L 28.148438 20.71875 C 28.839844 20.71875 29.398438 20.160156 29.398438 19.46875 L 29.398438 15.699219 C 29.398438 15.480469 29.351562 15.28125 29.25 15.101562 Z M 14.261719 20.339844 C 14.238281 21.351562 13.410156 22.171875 12.398438 22.171875 C 11.371094 22.171875 10.539062 21.328125 10.539062 20.300781 C 10.539062 19.269531 11.378906 18.441406 12.398438 18.441406 C 13.421875 18.441406 14.238281 19.261719 14.261719 20.269531 C 14.261719 20.28125 14.25 20.289062 14.25 20.300781 C 14.25 20.308594 14.261719 20.328125 14.261719 20.339844 Z M 25.050781 22.171875 C 24.019531 22.171875 23.179688 21.328125 23.179688 20.300781 C 23.179688 19.269531 24.019531 18.441406 25.050781 18.441406 C 26.078125 18.441406 26.910156 19.28125 26.910156 20.300781 C 26.910156 21.339844 26.070312 22.171875 25.050781 22.171875 Z M 28.601562 19.460938 C 28.601562 19.710938 28.398438 19.910156 28.148438 19.910156 L 27.679688 19.910156 C 27.488281 18.628906 26.390625 17.648438 25.050781 17.648438 C 23.71875 17.648438 22.609375 18.640625 22.421875 19.910156 L 21.949219 19.910156 C 21.699219 19.910156 21.5 19.710938 21.5 19.460938 L 21.5 11.851562 C 21.5 11.601562 21.699219 11.398438 21.949219 11.398438 L 26.078125 11.398438 C 26.25 11.398438 26.398438 11.488281 26.480469 11.640625 L 28.550781 15.480469 C 28.589844 15.550781 28.601562 15.621094 28.601562 15.691406 Z M 28.601562 19.460938 "/>
</g>
</svg>
