<?xml version="1.0" encoding="UTF-8"?>
<svg xmlns="http://www.w3.org/2000/svg" xmlns:xlink="http://www.w3.org/1999/xlink" width="32px" height="32px" viewBox="0 0 32 32" version="1.1">
<g id="surface1">
<path style=" stroke:none;fill-rule:nonzero;fill:rgb(47.45098%,47.45098%,47.45098%);fill-opacity:1;" d="M 3.671875 20.070312 C 3.289062 20.070312 2.980469 19.761719 2.980469 19.378906 L 2.980469 11.550781 L 24.558594 11.550781 L 24.558594 12.449219 C 24.789062 12.449219 25.011719 12.5 25.21875 12.601562 C 25.351562 12.660156 25.488281 12.730469 25.609375 12.789062 L 25.609375 7.058594 C 25.609375 6.089844 24.820312 5.308594 23.859375 5.308594 L 3.691406 5.308594 C 2.71875 5.308594 1.941406 6.101562 1.941406 7.058594 L 1.941406 19.359375 C 1.941406 20.328125 2.730469 21.109375 3.691406 21.109375 L 18.410156 21.109375 C 18.328125 20.769531 18.269531 20.421875 18.210938 20.058594 L 3.671875 20.058594 Z M 2.980469 7.039062 C 2.980469 6.660156 3.289062 6.351562 3.671875 6.351562 L 23.878906 6.351562 C 24.261719 6.351562 24.570312 6.660156 24.570312 7.039062 L 24.570312 8.179688 L 2.980469 8.179688 Z M 2.980469 7.039062 "/>
<path style=" stroke:none;fill-rule:nonzero;fill:rgb(47.45098%,47.45098%,47.45098%);fill-opacity:1;" d="M 16.949219 15.328125 C 16.949219 15.039062 16.710938 14.800781 16.421875 14.800781 L 5.039062 14.800781 C 4.75 14.800781 4.511719 15.039062 4.511719 15.328125 C 4.511719 15.621094 4.75 15.859375 5.039062 15.859375 L 16.421875 15.859375 C 16.710938 15.851562 16.949219 15.609375 16.949219 15.328125 Z M 16.949219 15.328125 "/>
<path style=" stroke:none;fill-rule:nonzero;fill:rgb(47.45098%,47.45098%,47.45098%);fill-opacity:1;" d="M 5.039062 17.488281 C 4.75 17.488281 4.511719 17.730469 4.511719 18.019531 C 4.511719 18.308594 4.75 18.550781 5.039062 18.550781 L 10.339844 18.550781 C 10.628906 18.550781 10.871094 18.308594 10.871094 18.019531 C 10.871094 17.730469 10.628906 17.488281 10.339844 17.488281 Z M 5.039062 17.488281 "/>
<path style=" stroke:none;fill-rule:nonzero;fill:rgb(47.45098%,47.45098%,47.45098%);fill-opacity:1;" d="M 29.53125 14.839844 C 27.5 14.839844 26.289062 14.238281 25.21875 13.699219 C 25.078125 13.628906 24.941406 13.558594 24.800781 13.488281 C 24.730469 13.460938 24.648438 13.441406 24.570312 13.441406 C 24.488281 13.441406 24.410156 13.460938 24.339844 13.488281 C 24.199219 13.550781 24.070312 13.621094 23.921875 13.699219 C 22.851562 14.230469 21.628906 14.839844 19.609375 14.839844 C 19.320312 14.839844 19.078125 15.078125 19.078125 15.371094 L 19.078125 18.21875 C 19.078125 19.808594 19.359375 21.238281 19.898438 22.480469 C 20.339844 23.480469 20.949219 24.351562 21.730469 25.070312 C 23.050781 26.300781 24.378906 26.660156 24.429688 26.671875 C 24.46875 26.679688 24.519531 26.691406 24.558594 26.691406 L 24.570312 26.691406 C 24.621094 26.691406 24.660156 26.679688 24.699219 26.671875 C 24.761719 26.648438 26.078125 26.300781 27.398438 25.070312 C 28.171875 24.351562 28.789062 23.480469 29.230469 22.480469 C 29.769531 21.25 30.050781 19.808594 30.050781 18.21875 L 30.050781 15.371094 C 30.050781 15.078125 29.820312 14.839844 29.53125 14.839844 Z M 29 18.230469 C 29 20.820312 28.230469 22.859375 26.71875 24.28125 C 26.128906 24.839844 25.539062 25.179688 25.148438 25.371094 C 24.898438 25.488281 24.699219 25.570312 24.570312 25.609375 C 24.449219 25.570312 24.261719 25.488281 24.03125 25.378906 C 23.640625 25.191406 23.050781 24.851562 22.460938 24.300781 C 20.929688 22.871094 20.148438 20.828125 20.148438 18.21875 L 20.148438 15.878906 C 22.121094 15.78125 23.390625 15.148438 24.410156 14.640625 C 24.46875 14.609375 24.53125 14.578125 24.589844 14.550781 C 24.640625 14.578125 24.699219 14.601562 24.761719 14.628906 L 24.769531 14.640625 C 25.789062 15.148438 27.058594 15.78125 29.03125 15.871094 L 29.03125 18.21875 L 29 18.21875 Z M 29 18.230469 "/>
<path style=" stroke:none;fill-rule:nonzero;fill:rgb(47.45098%,47.45098%,47.45098%);fill-opacity:1;" d="M 24.570312 16.398438 C 23.648438 16.398438 22.898438 17.148438 22.898438 18.070312 L 22.898438 18.679688 L 23.671875 18.679688 L 23.671875 18.390625 C 23.671875 18.289062 23.671875 18.179688 23.671875 18.058594 C 23.671875 17.578125 24.050781 17.191406 24.53125 17.160156 C 25.039062 17.140625 25.460938 17.550781 25.460938 18.058594 C 25.460938 18.179688 25.460938 18.300781 25.460938 18.398438 L 25.460938 18.671875 L 26.230469 18.671875 L 26.230469 18.058594 C 26.238281 17.148438 25.488281 16.398438 24.570312 16.398438 Z M 24.570312 16.398438 "/>
<path style=" stroke:none;fill-rule:nonzero;fill:rgb(47.45098%,47.45098%,47.45098%);fill-opacity:1;" d="M 23.058594 18.878906 C 22.761719 18.878906 22.511719 19.128906 22.511719 19.429688 L 22.511719 21.429688 C 22.511719 21.660156 22.589844 21.890625 22.738281 22.058594 C 23.160156 22.558594 23.699219 22.890625 24.578125 22.890625 C 25.449219 22.890625 25.988281 22.570312 26.410156 22.070312 C 26.558594 21.890625 26.640625 21.660156 26.640625 21.429688 L 26.640625 19.429688 C 26.640625 19.128906 26.398438 18.878906 26.089844 18.878906 C 26.078125 18.878906 23.058594 18.878906 23.058594 18.878906 Z M 24.828125 20.769531 L 24.828125 21.421875 C 24.828125 21.558594 24.710938 21.691406 24.558594 21.691406 C 24.480469 21.691406 24.421875 21.660156 24.371094 21.609375 C 24.320312 21.558594 24.289062 21.488281 24.289062 21.421875 L 24.289062 20.769531 C 24.128906 20.679688 24.019531 20.5 24.019531 20.308594 C 24.019531 20.011719 24.261719 19.78125 24.550781 19.78125 C 24.851562 19.78125 25.078125 20.019531 25.078125 20.308594 C 25.101562 20.511719 24.988281 20.679688 24.828125 20.769531 Z M 24.828125 20.769531 "/>
</g>
</svg>
