<?xml version="1.0" encoding="UTF-8"?>
<svg xmlns="http://www.w3.org/2000/svg" xmlns:xlink="http://www.w3.org/1999/xlink" width="80px" height="80px" viewBox="0 0 80 80" version="1.1">
<g id="surface1">
<path style="fill:none;stroke-width:1;stroke-linecap:butt;stroke-linejoin:miter;stroke:rgb(50.196078%,50.196078%,50.196078%);stroke-opacity:1;stroke-miterlimit:10;" d="M 78.898438 40 C 78.898438 61.484375 61.484375 78.898438 40 78.898438 C 18.515625 78.898438 1.101562 61.484375 1.101562 40 C 1.101562 18.515625 18.515625 1.101562 40 1.101562 C 61.484375 1.101562 78.898438 18.515625 78.898438 40 Z M 78.898438 40 "/>
<path style=" stroke:none;fill-rule:nonzero;fill:rgb(50.196078%,50.196078%,50.196078%);fill-opacity:1;" d="M 32 67.800781 L 27.5 67.800781 L 20.601562 59.898438 L 27 59.898438 L 27 56.800781 L 19.898438 56.800781 L 19.898438 67.800781 L 16 67.800781 L 16 55 L 30.800781 55 L 30.800781 61.800781 L 26.699219 61.800781 Z M 32 67.800781 "/>
<path style=" stroke:none;fill-rule:nonzero;fill:rgb(50.196078%,50.196078%,50.196078%);fill-opacity:1;" d="M 35.5 67.800781 L 32.398438 64.300781 L 32.398438 55 L 47 55 L 47 67.800781 Z M 36.199219 56.898438 L 36.199219 63.5 L 38.398438 66 L 43.101562 66 L 43.101562 56.898438 C 43.101562 56.898438 36.199219 56.898438 36.199219 56.898438 Z M 36.199219 56.898438 "/>
<path style=" stroke:none;fill-rule:nonzero;fill:rgb(50.196078%,50.196078%,50.196078%);fill-opacity:1;" d="M 63.398438 60.800781 L 63.398438 67.800781 L 48.800781 67.800781 L 48.800781 55 L 64 55 L 62.398438 56.898438 L 52.800781 56.898438 L 52.800781 66 L 59.699219 66 L 59.699219 60.898438 L 63.398438 60.898438 Z M 63.398438 60.800781 "/>
<path style=" stroke:none;fill-rule:nonzero;fill:rgb(50.196078%,50.196078%,50.196078%);fill-opacity:1;" d="M 49.300781 33.898438 C 48.699219 33.898438 48.5 34.300781 48.5 35.199219 L 48.5 36.101562 L 50.199219 36.101562 L 50.199219 35.199219 C 50.199219 34.300781 49.898438 33.898438 49.300781 33.898438 Z M 49.300781 33.898438 "/>
<path style=" stroke:none;fill-rule:nonzero;fill:rgb(50.196078%,50.196078%,50.196078%);fill-opacity:1;" d="M 53.398438 29 C 53.300781 28.300781 52.898438 27.601562 52.300781 27.101562 C 51.800781 26.601562 51.101562 26.300781 50.398438 26.199219 C 43.5 25.699219 36.5 25.699219 29.601562 26.199219 C 28.898438 26.300781 28.199219 26.601562 27.699219 27.101562 C 27.199219 27.601562 26.800781 28.300781 26.601562 29 C 26.199219 31.199219 26.101562 33.5 26.101562 35.699219 C 26 38 26.199219 40.199219 26.601562 42.398438 C 26.699219 43.101562 27.101562 43.800781 27.699219 44.300781 C 28.199219 44.800781 28.898438 45.101562 29.601562 45.199219 C 36.5 45.699219 43.5 45.699219 50.5 45.199219 C 51.199219 45.101562 51.898438 44.800781 52.398438 44.300781 C 53 43.800781 53.300781 43.101562 53.5 42.398438 C 53.898438 40.199219 54 37.898438 54 35.699219 C 54 33.5 53.800781 31.300781 53.398438 29 Z M 34 31 L 32 31 L 32 42 L 30.101562 42 L 30.101562 31 L 28.101562 31 L 28.101562 29.199219 L 34 29.199219 C 34 29.199219 34 31 34 31 Z M 39.101562 42 L 37.398438 42 L 37.398438 41 C 37.199219 41.300781 36.898438 41.601562 36.601562 41.800781 C 36.300781 42 35.898438 42.101562 35.5 42.199219 C 35.300781 42.199219 35 42.199219 34.800781 42 C 34.601562 41.898438 34.5 41.699219 34.398438 41.398438 C 34.300781 40.898438 34.199219 40.5 34.199219 40 L 34.199219 32.5 L 35.898438 32.5 L 35.898438 39.5 C 35.898438 39.699219 35.898438 40 35.898438 40.199219 C 35.898438 40.5 36.101562 40.601562 36.300781 40.601562 C 36.601562 40.601562 37 40.300781 37.398438 39.800781 L 37.398438 32.5 L 39.101562 32.5 C 39.101562 32.398438 39.101562 42 39.101562 42 Z M 45.5 39.101562 C 45.5 39.699219 45.5 40.398438 45.300781 41 C 45.199219 41.300781 45.101562 41.601562 44.800781 41.800781 C 44.601562 42 44.199219 42.101562 43.898438 42.101562 C 43.5 42.101562 43.199219 42 42.898438 41.800781 C 42.601562 41.601562 42.300781 41.398438 42.101562 41.101562 L 42.101562 42 L 40.398438 42 L 40.398438 29.199219 L 42.101562 29.199219 L 42.101562 33.398438 C 42.300781 33.101562 42.5 32.898438 42.800781 32.699219 C 43.101562 32.5 43.398438 32.398438 43.800781 32.398438 C 44.101562 32.398438 44.398438 32.5 44.699219 32.699219 C 44.898438 32.898438 45.101562 33.199219 45.199219 33.5 C 45.300781 34.101562 45.398438 34.800781 45.398438 35.398438 Z M 51.800781 37.5 L 48.398438 37.5 L 48.398438 39.199219 C 48.398438 40.101562 48.699219 40.5 49.300781 40.5 C 49.5 40.5 49.699219 40.398438 49.800781 40.300781 C 49.898438 40.199219 50 40 50 39.800781 C 50 39.398438 50 39 50 38.601562 L 51.699219 38.601562 L 51.699219 38.800781 C 51.699219 39.199219 51.699219 39.5 51.699219 39.898438 C 51.699219 40.300781 51.5 40.601562 51.300781 40.898438 C 51.101562 41.199219 50.800781 41.5 50.398438 41.699219 C 50 41.898438 49.601562 42 49.300781 41.898438 C 48.898438 41.898438 48.5 41.800781 48.199219 41.699219 C 47.800781 41.5 47.5 41.300781 47.300781 41 C 46.898438 40.300781 46.699219 39.5 46.800781 38.800781 L 46.800781 35.5 C 46.699219 34.699219 46.898438 33.898438 47.300781 33.300781 C 47.5 33 47.800781 32.699219 48.199219 32.601562 C 48.5 32.398438 48.898438 32.300781 49.300781 32.300781 C 49.699219 32.300781 50.101562 32.398438 50.398438 32.601562 C 50.699219 32.800781 51.101562 33 51.300781 33.300781 C 51.699219 34 51.898438 34.800781 51.800781 35.5 C 51.800781 35.5 51.800781 37.5 51.800781 37.5 Z M 51.800781 37.5 "/>
<path style=" stroke:none;fill-rule:nonzero;fill:rgb(50.196078%,50.196078%,50.196078%);fill-opacity:1;" d="M 43.101562 33.898438 C 42.898438 33.898438 42.800781 34 42.601562 34 C 42.5 34.101562 42.300781 34.199219 42.199219 34.300781 L 42.199219 40.101562 C 42.300781 40.199219 42.398438 40.300781 42.601562 40.398438 C 42.699219 40.5 42.898438 40.5 43.101562 40.5 C 43.601562 40.5 43.800781 40.101562 43.800781 39.199219 L 43.800781 35.101562 C 43.800781 34.300781 43.601562 33.898438 43.101562 33.898438 Z M 32.898438 18.898438 L 32.898438 24.101562 L 34.800781 24.101562 L 34.800781 18.898438 L 37.101562 11.199219 L 35.199219 11.199219 L 33.898438 16.300781 L 32.601562 11.199219 L 30.601562 11.199219 C 31 12.300781 31.398438 13.5 31.800781 14.800781 C 32.300781 16.101562 32.601562 17.5 32.898438 18.898438 Z M 39.601562 24.199219 C 40 24.199219 40.398438 24.101562 40.699219 24 C 41 23.800781 41.300781 23.601562 41.601562 23.300781 C 42 22.601562 42.199219 21.800781 42.101562 21 L 42.101562 17.601562 C 42.199219 16.800781 42 16 41.601562 15.300781 C 41.398438 15 41.101562 14.699219 40.699219 14.601562 C 40.398438 14.398438 40 14.300781 39.601562 14.300781 C 39.199219 14.300781 38.800781 14.398438 38.5 14.601562 C 38.199219 14.800781 37.898438 15 37.601562 15.300781 C 37.199219 16 37 16.800781 37.101562 17.601562 L 37.101562 21 C 37 21.800781 37.199219 22.601562 37.601562 23.300781 C 37.800781 23.601562 38.101562 23.898438 38.5 24 C 38.800781 24.199219 39.199219 24.300781 39.601562 24.199219 Z M 38.800781 17.300781 C 38.800781 16.398438 39.101562 16 39.601562 16 C 40.101562 16 40.398438 16.398438 40.398438 17.300781 L 40.398438 21.300781 C 40.398438 22.199219 40.101562 22.601562 39.601562 22.601562 C 39.101562 22.601562 38.800781 22.101562 38.800781 21.300781 Z M 44.800781 24.199219 C 45.199219 24.199219 45.601562 24 45.898438 23.800781 C 46.199219 23.601562 46.5 23.300781 46.699219 23 L 46.699219 24.101562 L 48.398438 24.101562 L 48.398438 14.5 L 46.699219 14.5 L 46.699219 21.800781 C 46.300781 22.398438 46 22.601562 45.601562 22.601562 C 45.398438 22.601562 45.199219 22.5 45.199219 22.199219 C 45.199219 22 45.199219 21.699219 45.199219 21.5 L 45.199219 14.398438 L 43.5 14.398438 L 43.5 22 C 43.5 22.5 43.5 23 43.699219 23.398438 C 43.800781 23.601562 43.898438 23.800781 44.101562 24 C 44.300781 24.199219 44.5 24.300781 44.800781 24.199219 Z M 44.800781 24.199219 "/>
</g>
</svg>
