<svg width="64" height="64" viewBox="0 0 64 64" fill="none" xmlns="http://www.w3.org/2000/svg">
<path d="M21.6971 35.5415L35.3092 49.1536C36.0902 49.9347 37.3566 49.9347 38.1376 49.1536L46.4544 40.8368C47.2355 40.0557 47.2355 38.7894 46.4544 38.0084L32.8423 24.3963C32.5476 24.1015 32.1681 23.9062 31.7569 23.8377L27.0357 23.0508C26.3985 22.9446 25.7494 23.1527 25.2926 23.6094L20.9102 27.9918C20.4535 28.4485 20.2455 29.0977 20.3516 29.7348L21.1385 34.4561C21.2071 34.8673 21.4023 35.2468 21.6971 35.5415Z" stroke="black" stroke-linecap="round" stroke-linejoin="round"/>
<circle cx="26.1247" cy="28.8243" r="1.75131" transform="rotate(-45 26.1247 28.8243)" fill="black"/>
<path d="M20.2244 27.8127C19.207 27.1574 17.9976 26.0611 17.5374 24.4795C17.1612 23.4641 17.2707 22.6556 17.5373 21.8986C17.8039 21.1416 18.3819 20.6261 19.185 20.4292C19.9881 20.2323 20.973 20.3646 21.9924 20.8064C23.0119 21.2481 24.0111 21.9755 24.8406 22.8798C25.67 23.7841 26.2852 24.8166 26.594 25.823C26.8944 26.8019 26.6951 27.5493 26.3377 28.0736" stroke="black" stroke-linecap="round"/>
<path d="M31.5889 37.9177C31.9117 37.5949 32.0017 37.1543 31.9442 36.7518C31.8867 36.3494 31.6815 35.9519 31.3636 35.634C31.0458 35.3161 30.6482 35.1109 30.2459 35.0534C29.8433 34.9959 29.4028 35.0859 29.0799 35.4088C28.7571 35.7316 28.6671 36.1722 28.7246 36.5747C28.7821 36.977 28.9873 37.3746 29.3052 37.6925C29.6231 38.0103 30.0206 38.2155 30.423 38.273C30.8255 38.3305 31.2661 38.2405 31.5889 37.9177Z" stroke="black"/>
<path d="M39.2852 37.918C39.608 37.5952 39.698 37.1546 39.6405 36.7521C39.583 36.3498 39.3778 35.9522 39.0599 35.6343C38.7421 35.3164 38.3445 35.1112 37.9421 35.0537C37.5396 34.9962 37.099 35.0862 36.7762 35.4091C36.4534 35.7319 36.3634 36.1725 36.4209 36.575C36.4784 36.9773 36.6836 37.3749 37.0015 37.6928C37.3193 38.0106 37.7169 38.2158 38.1192 38.2733C38.5218 38.3308 38.9623 38.2408 39.2852 37.918Z" stroke="black"/>
<line x1="33.4006" y1="32.3441" x2="35.038" y2="42.1686" stroke="black" stroke-linecap="round"/>
</svg>
