<svg width="70" height="16" viewBox="0 0 70 16" fill="none" xmlns="http://www.w3.org/2000/svg">
<path d="M4.96263 2.00813L0 13.9988H2.03829L3.31192 10.8627H8.99484L10.2159 13.9988H12.2531L7.48422 2.00813H4.9638H4.96263ZM3.89096 9.33444L6.19191 3.4407L8.37845 9.33444H3.88979H3.89096Z" fill="#0C5D6F"/>
<path d="M31.0507 8.79745C31.0507 9.55284 31.0226 10.1063 30.9678 10.4577C30.9117 10.8091 30.8078 11.0963 30.6561 11.3182C30.1296 12.0852 29.1898 12.4694 27.8368 12.4694C26.6134 12.4694 25.7401 12.1413 25.2195 11.4851C25.0199 11.2388 24.8798 10.9212 24.798 10.5324C24.7163 10.1436 24.6755 9.61472 24.6755 8.94689V2.00586H22.7609V8.94689C22.7609 9.92529 22.8345 10.6632 22.9804 11.1605C23.2793 12.174 23.8851 12.9294 24.798 13.4267C25.495 13.8074 26.4312 13.9977 27.6092 13.9977C28.9213 13.9977 29.9895 13.7957 30.8148 13.3917C31.8982 12.8652 32.5566 12.1039 32.7913 11.108C32.908 10.6106 32.9664 9.84006 32.9664 8.79745V2.00586H31.0518V8.79745H31.0507Z" fill="#0C5D6F"/>
<path d="M42.5927 7.65556C42.2647 7.40921 41.8491 7.23992 41.3459 7.14652C40.8428 7.05311 40.0781 7.00641 39.0531 7.00641H38.3328C37.3954 7.00641 36.7265 6.87798 36.3261 6.61995C35.9245 6.36193 35.7249 5.93461 35.7249 5.338C35.7249 4.65849 35.9537 4.17279 36.4101 3.87973C36.6144 3.7513 36.8561 3.66141 37.1351 3.61237C37.4129 3.56216 37.8122 3.53764 38.334 3.53764H43.2698V2.00934H38.334C37.2215 2.00934 36.3623 2.12492 35.7564 2.35609C35.1505 2.58727 34.6567 2.99241 34.2761 3.57268C33.8839 4.16462 33.6877 4.84296 33.6877 5.6112C33.6877 6.7764 34.115 7.62871 34.9696 8.16694C35.5673 8.54756 36.5561 8.73787 37.9383 8.73787H38.9399C39.8586 8.73787 40.4715 8.78807 40.7751 8.88731C41.4603 9.11031 41.8024 9.68708 41.8024 10.6176C41.8024 11.3497 41.5385 11.868 41.012 12.1728C40.6665 12.3724 40.0956 12.4717 39.2995 12.4717H34.1173V14H39.0531C39.9193 14 40.5708 13.9685 41.0074 13.9031C41.444 13.8389 41.8339 13.7186 42.1794 13.5435C43.2861 12.969 43.8395 11.9743 43.8395 10.5569C43.8395 9.9416 43.7297 9.38002 43.5103 8.86981C43.2908 8.36076 42.9849 7.95679 42.5927 7.6579V7.65556Z" fill="#0C5D6F"/>
<path d="M21.7172 8.86747C21.4978 8.35842 21.1919 7.95445 20.7997 7.65556C20.4716 7.40921 20.056 7.23992 19.5529 7.14652C19.0497 7.05311 18.2851 7.00641 17.2601 7.00641H16.5398C15.6024 7.00641 14.9335 6.87798 14.533 6.61995C14.1315 6.36193 13.9318 5.93461 13.9318 5.338C13.9318 4.65849 14.1606 4.17279 14.6171 3.87973C14.8214 3.7513 15.063 3.66141 15.3421 3.61237C15.6199 3.56216 16.0191 3.53764 16.541 3.53764H21.4768V2.00934H16.541C15.4284 2.00934 14.5692 2.12492 13.9633 2.35609C13.3575 2.58727 12.8637 2.99241 12.4831 3.57268C12.0908 4.16462 11.8947 4.84296 11.8947 5.6112C11.8947 6.7764 12.322 7.62871 13.1765 8.16694C13.7742 8.54756 14.763 8.73787 16.1452 8.73787H17.1469C18.0656 8.73787 18.6785 8.78807 18.982 8.88731C19.6673 9.11031 20.0093 9.68708 20.0093 10.6176C20.0093 11.3497 19.7455 11.868 19.219 12.1728C18.8735 12.3724 18.3026 12.4717 17.5064 12.4717H12.5485L13.1567 14H17.2601C18.1263 14 18.7777 13.9685 19.2143 13.9031C19.6509 13.8389 20.0409 13.7186 20.3864 13.5435C21.4931 12.969 22.0465 11.9743 22.0465 10.5569C22.0465 9.9416 21.9367 9.38002 21.7172 8.86981V8.86747Z" fill="#0C5D6F"/>
<path d="M56.5361 7.56915C57.1303 7.56915 57.3918 7.79682 57.5366 7.96845C57.7969 8.27551 57.9288 8.75304 57.9288 9.38585C57.9288 10.0187 57.7958 10.4973 57.5319 10.8067C57.3848 10.9795 57.1222 11.2095 56.535 11.2095C55.9478 11.2095 55.6851 10.9819 55.5415 10.8102C55.2812 10.4997 55.1493 10.0198 55.1493 9.38468C55.1493 8.74954 55.2823 8.28019 55.5438 7.96962C55.6886 7.79799 55.9501 7.56799 56.535 7.56799M56.535 6.69233C55.8287 6.69233 55.2742 6.92934 54.8749 7.40453C54.4745 7.87972 54.2749 8.53938 54.2749 9.38351C54.2749 10.2276 54.4733 10.8966 54.8714 11.3707C55.2695 11.8459 55.824 12.0829 56.5361 12.0829C57.2482 12.0829 57.7981 11.8459 58.2008 11.3707C58.6036 10.8955 58.8056 10.2335 58.8056 9.38351C58.8056 8.53354 58.6059 7.87155 58.2055 7.39986C57.8051 6.92817 57.2494 6.69116 56.5373 6.69116L56.535 6.69233Z" fill="#0C5D6F"/>
<path d="M49.6216 2.87913V13.122H48.6982V2.87913H49.6216ZM50.4972 2.00348H47.8227V13.9976H50.4972V2.00348Z" fill="#0C5D6F"/>
<path d="M56.5525 5.63105C57.7608 5.63105 58.6854 5.96264 59.38 6.64331C60.0699 7.32049 60.405 8.21715 60.405 9.38469C60.405 10.5522 60.0723 11.4466 59.3882 12.1179C58.6994 12.7939 57.7713 13.122 56.5525 13.122C55.3338 13.122 54.3999 12.7916 53.7017 12.1109C53.0106 11.4372 52.6744 10.5452 52.6744 9.38352C52.6744 8.22182 53.0106 7.31932 53.7029 6.64331C54.401 5.96147 55.3326 5.62989 56.5525 5.62989M56.5525 4.75423C55.1061 4.75423 53.9527 5.17571 53.0912 6.0175C52.2297 6.8593 51.7989 7.98248 51.7989 9.38469C51.7989 10.7869 52.2297 11.8996 53.0912 12.739C53.9527 13.5785 55.1061 13.9976 56.5525 13.9976C57.999 13.9976 59.1488 13.5797 60.0022 12.7425C60.8556 11.9066 61.2817 10.7869 61.2817 9.38352C61.2817 7.98014 60.8521 6.85931 59.994 6.01634C59.136 5.17455 57.9884 4.75306 56.5537 4.75306L56.5525 4.75423Z" fill="#0C5D6F"/>
<path d="M67.7526 2.87566V3.87858H64.5189V13.122H63.4169V3.87858H60.0279V2.87566H67.7526ZM68.6282 2H59.1524V4.75423H62.5413V13.9976H65.3945V4.75423H68.6282V2Z" fill="#0C5D6F"/>
</svg>
