<svg width="45" height="16" viewBox="0 0 45 16" fill="none" xmlns="http://www.w3.org/2000/svg">
<path d="M21.6979 7.39429C21.2712 6.62484 20.6639 6.0191 19.8925 5.57708C19.1374 5.15142 18.3332 4.92223 17.5125 4.92223C16.7903 4.92223 16.1009 5.08594 15.4444 5.39699C14.9356 5.64256 14.476 5.96999 14.0492 6.37927C13.6225 6.80492 13.2942 7.31243 13.0316 7.9018C12.7854 8.49117 12.6541 9.14602 12.6541 9.83361C12.6541 10.2593 12.7197 10.6849 12.8346 11.0942C12.9495 11.5199 13.1301 11.9128 13.3599 12.3057C13.5897 12.6986 13.9179 13.0751 14.3283 13.4353C14.7386 13.8118 15.231 14.1065 15.7727 14.303C16.3143 14.5158 16.8888 14.614 17.4797 14.614C18.3168 14.614 19.121 14.4012 19.876 13.9592C20.6311 13.5335 21.2384 12.9114 21.6815 12.142C22.1083 11.3725 22.3217 10.5703 22.3217 9.75176C22.3545 8.96593 22.1247 8.16374 21.6979 7.39429ZM20.6475 9.75176C20.6475 10.3575 20.4998 10.9141 20.2207 11.438C19.9417 11.9455 19.5478 12.3384 19.0554 12.6167C18.0706 13.1734 16.9544 13.1897 15.9368 12.6004C15.428 12.3057 15.0341 11.9128 14.7714 11.4216C14.4924 10.9141 14.3611 10.3902 14.3611 9.83361C14.3611 9.22788 14.5088 8.67125 14.7879 8.16374C15.0669 7.65623 15.4608 7.24695 15.9696 6.96864C16.4784 6.67395 17.0037 6.52661 17.5125 6.52661C18.0213 6.52661 18.5301 6.67395 19.039 6.95227C19.5478 7.23058 19.9417 7.62349 20.2371 8.11463C20.4998 8.58939 20.6475 9.14602 20.6475 9.75176Z" fill="url(#paint0_linear_1111_238)"/>
<path d="M43.6428 12.8623L43.2161 13.0096C43.0848 13.0587 42.8386 13.1078 42.3133 13.1078C41.7553 13.1078 41.2465 12.9278 41.2465 11.6672V6.51021H43.6428V4.97131H41.2465V2.79393L39.441 3.43241V4.95494H37.6847C35.6659 4.95494 34.0409 6.54295 34.0409 8.50751V14.3357H35.8464V8.73671C35.8464 7.47612 36.7328 6.5757 37.8981 6.51021H39.441V11.438C39.441 12.6331 39.6544 13.4025 40.1468 13.8937C40.5899 14.3848 41.2793 14.6467 42.1656 14.6467C42.7401 14.6467 43.2325 14.5813 43.6264 14.4339L43.9383 14.3193L43.6428 12.8623Z" fill="url(#paint1_linear_1111_238)"/>
<path d="M12.5058 4.97149C10.487 4.97149 8.8292 6.57588 8.8292 8.54043V14.3686H10.6347V8.73689C10.6347 7.45993 11.5538 6.54313 12.7356 6.51039C12.7356 6.51039 13.5235 5.06972 13.5399 5.03697C13.0639 4.97149 12.5058 4.97149 12.5058 4.97149Z" fill="url(#paint2_linear_1111_238)"/>
<path d="M1.87114 14.3685V8.75318H2.47844C4.10338 8.75318 5.18667 8.68769 5.79397 8.54035C6.64747 8.32752 7.32042 7.93461 7.81283 7.32887C8.30523 6.72314 8.55143 5.95369 8.55143 5.05326C8.55143 4.15284 8.28882 3.38339 7.79641 2.76128C7.2876 2.15555 6.64747 1.74626 5.85962 1.56618C5.31798 1.41884 4.33316 1.35335 2.83954 1.35335H0V14.3685H1.87114ZM1.87114 3.18694H3.82435C4.64502 3.18694 5.23591 3.25242 5.58059 3.38339C5.90886 3.51436 6.15506 3.72719 6.35203 4.02187C6.54899 4.33293 6.64747 4.66035 6.64747 5.03689C6.64747 5.41343 6.54899 5.75723 6.35203 6.06828C6.15506 6.37934 5.89245 6.59217 5.53135 6.72314C5.17025 6.87048 4.56295 6.93596 3.72587 6.93596L1.87114 6.91959V3.18694Z" fill="url(#paint3_linear_1111_238)"/>
<path d="M27.9677 1.35326H27.2948L21.9604 14.3684H23.7987L25.4729 10.2756H29.724L31.4146 14.3684H33.2201L27.9677 1.35326ZM26.2115 8.49114L27.6231 5.06954L29.0182 8.49114H26.2115Z" fill="url(#paint4_linear_1111_238)"/>
<defs>
<linearGradient id="paint0_linear_1111_238" x1="41.8758" y1="14.3315" x2="41.8758" y2="2.29124" gradientUnits="userSpaceOnUse">
<stop stop-color="#9A7A59"/>
<stop offset="0.539" stop-color="#CDAB82"/>
<stop offset="1" stop-color="#DFC9A9"/>
</linearGradient>
<linearGradient id="paint1_linear_1111_238" x1="41.8758" y1="14.3315" x2="41.8758" y2="2.29124" gradientUnits="userSpaceOnUse">
<stop stop-color="#9A7A59"/>
<stop offset="0.539" stop-color="#CDAB82"/>
<stop offset="1" stop-color="#DFC9A9"/>
</linearGradient>
<linearGradient id="paint2_linear_1111_238" x1="41.8758" y1="14.3315" x2="41.8758" y2="2.29124" gradientUnits="userSpaceOnUse">
<stop stop-color="#9A7A59"/>
<stop offset="0.539" stop-color="#CDAB82"/>
<stop offset="1" stop-color="#DFC9A9"/>
</linearGradient>
<linearGradient id="paint3_linear_1111_238" x1="41.8758" y1="14.3315" x2="41.8758" y2="2.29124" gradientUnits="userSpaceOnUse">
<stop stop-color="#9A7A59"/>
<stop offset="0.539" stop-color="#CDAB82"/>
<stop offset="1" stop-color="#DFC9A9"/>
</linearGradient>
<linearGradient id="paint4_linear_1111_238" x1="41.8758" y1="14.3315" x2="41.8758" y2="2.29124" gradientUnits="userSpaceOnUse">
<stop stop-color="#9A7A59"/>
<stop offset="0.539" stop-color="#CDAB82"/>
<stop offset="1" stop-color="#DFC9A9"/>
</linearGradient>
</defs>
</svg>
