<svg width="31" height="16" viewBox="0 0 31 16" fill="none" xmlns="http://www.w3.org/2000/svg">
<g clip-path="url(#clip0_1111_252)">
<g clip-path="url(#clip1_1111_252)">
<path d="M19.965 13.83C17.389 14.34 12.828 12.55 12.828 12.55C13.222 12.258 17.98 8.733 29.218 4.189C29.229 4.189 29.251 4.178 29.262 4.178C29.635 4.026 30.139 3.158 30.15 2.67C30.15 2.67 26.17 3.028 22.651 4.818C17.915 7.052 9.922 12.68 9.922 12.68C9.922 12.68 10.503 13.07 11.019 13.287C14.878 14.957 20.524 15.987 21.62 15.63C24.592 14.676 27.914 8.45 28.955 5.576C28.955 5.576 25.831 6.802 22.673 8.276C20.031 9.502 18.419 10.294 17.663 10.663C17.586 10.695 17.531 10.717 17.509 10.728L17.641 10.674C17.301 10.847 17.136 10.923 17.136 10.923L26.116 8.233L24.504 8.721C24.504 8.721 22.53 13.309 19.965 13.83V13.83ZM26.094 8.343L26.16 8.213C26.17 8.213 26.138 8.267 26.094 8.343ZM17.51 10.718L17.498 10.73L17.51 10.718Z" fill="#F7323F"/>
<path d="M11.391 16C11.391 16 11.358 15.967 11.315 15.913C10.953 15.523 9.462 13.917 8.968 12.995C8.672 12.442 9.034 11.705 11.435 9.948C13.606 8.354 21.423 1.857 28.9 0.110002C28.9 0.110002 24.986 -0.519998 19.384 1.216C17.389 1.834 14.45 4.6 9.067 9.816C8.332 10.218 5.712 8.732 4.199 8.006C4.199 8.006 6.709 11.932 7.587 13.103C8.935 14.948 11.39 16 11.39 16H11.391ZM6.227 12.377C6.26 12.388 6.282 12.399 6.282 12.399C6.272 12.399 6.272 12.389 6.26 12.377H6.282C4.221 10.946 0 7.052 0 7.052C0 7.052 0 7.062 0.011 7.062H0L0.011 7.074C0.099 7.302 0.899 9.384 1.721 10.425C2.511 11.466 5.756 12.269 6.227 12.377V12.377Z" fill="#F7323F"/>
</g>
</g>
<defs>
<clipPath id="clip0_1111_252">
<rect width="31" height="16" fill="white"/>
</clipPath>
<clipPath id="clip1_1111_252">
<rect width="31" height="17" fill="white" transform="translate(0 -1)"/>
</clipPath>
</defs>
</svg>
